<svg width="48" height="48" viewBox="0 0 48 48" fill="none" xmlns="http://www.w3.org/2000/svg">
<path fill-rule="evenodd" clip-rule="evenodd" d="M41.9394 7.45696L40.9524 7.29996L40.6934 6.33396L42.1824 5.93396L41.9394 7.45696ZM28.7194 21.287L27.8684 21.811L27.8664 21.809L27.8634 21.804L27.8534 21.788L27.8194 21.731L27.6994 21.524C27.5595 21.279 27.4244 21.0313 27.2944 20.781C26.8828 19.994 26.524 19.1806 26.2204 18.346C25.8824 17.402 25.5924 16.321 25.5474 15.275C25.5034 14.233 25.6974 13.102 26.4734 12.215C27.1704 11.419 28.4844 10.686 29.8654 10.052C31.2964 9.39296 32.9804 8.76096 34.5754 8.21396C36.5511 7.53937 38.5467 6.92443 40.5594 6.36996L40.6594 6.34196L40.6944 6.33196L40.9544 7.29896L41.9414 7.45596L41.9354 7.49296L41.9184 7.59896C41.8186 8.21244 41.7139 8.82513 41.6044 9.43696C41.338 10.9416 41.0473 12.4417 40.7324 13.937C40.3764 15.618 39.9624 17.38 39.5234 18.855C39.3279 19.5294 39.0986 20.1935 38.8364 20.845C38.6084 21.395 38.3384 21.929 38.0104 22.305C37.3084 23.107 36.2154 23.358 35.2604 23.422C34.2644 23.489 33.1604 23.368 32.1674 23.192C31.2818 23.0325 30.4047 22.829 29.5394 22.582C29.1854 22.4822 28.8333 22.3756 28.4834 22.262L28.4204 22.24L28.4034 22.234L28.3984 22.233H28.3964L28.7194 21.287ZM28.7194 21.287L27.8684 21.811L28.0564 22.116L28.3964 22.233L28.7194 21.287ZM29.3914 20.454C30.4156 20.7724 31.4577 21.0295 32.5124 21.224C33.4364 21.387 34.3604 21.479 35.1264 21.427C35.9354 21.373 36.3414 21.175 36.5044 20.989C36.6084 20.869 36.7784 20.585 36.9884 20.079C37.2238 19.4919 37.4297 18.8935 37.6054 18.286C38.0224 16.886 38.4234 15.183 38.7754 13.524C39.1133 11.9189 39.4226 10.308 39.7034 8.69196L39.3944 8.78196C38.2854 9.10896 36.7874 9.56996 35.2244 10.106C33.6584 10.643 32.0454 11.25 30.7004 11.869C29.3044 12.511 28.3624 13.094 27.9784 13.533C27.6714 13.883 27.5134 14.422 27.5464 15.189C27.5784 15.952 27.7974 16.819 28.1034 17.67C28.4528 18.6329 28.8837 19.5643 29.3914 20.454ZM10.2624 9.97396L10.0034 10.94L9.01544 11.097L8.77344 9.57496L10.2624 9.97396ZM19.9444 22.307L20.7954 22.83L20.7974 22.828L20.7994 22.824L20.8074 22.811L20.8364 22.763L20.9364 22.593C21.4147 21.7579 21.8211 20.8838 22.1514 19.98C22.4294 19.204 22.6714 18.305 22.7084 17.429C22.7464 16.556 22.5844 15.582 21.9104 14.812C21.3144 14.13 20.2114 13.522 19.0914 13.006C17.9204 12.467 16.5454 11.951 15.2464 11.506C13.6375 10.957 12.0124 10.4565 10.3734 10.005L10.2914 9.98196L10.2624 9.97396L10.0034 10.94L9.01544 11.097L9.02044 11.127L9.03444 11.214L9.08844 11.54C9.35819 13.1575 9.66193 14.7692 9.99944 16.374C10.2894 17.742 10.6274 19.179 10.9854 20.384C11.1654 20.986 11.3534 21.547 11.5504 22.02C11.7374 22.47 11.9664 22.929 12.2544 23.257C12.8744 23.967 13.8274 24.177 14.6164 24.229C15.4484 24.285 16.3614 24.184 17.1764 24.041C18.1999 23.858 19.2091 23.6027 20.1964 23.277L20.2474 23.26L20.2624 23.255L20.2674 23.253L19.9444 22.307ZM19.9444 22.307L20.7954 22.83L20.6074 23.136L20.2674 23.253L19.9444 22.307ZM19.2714 21.473C19.3348 21.3596 19.4088 21.222 19.4934 21.06C19.7314 20.602 20.0274 19.978 20.2684 19.304C20.5134 18.622 20.6854 17.937 20.7104 17.344C20.7364 16.745 20.6104 16.364 20.4054 16.128C20.1224 15.806 19.3924 15.346 18.2554 14.823C17.1714 14.324 15.8674 13.833 14.5974 13.398C13.4911 13.0202 12.3769 12.6661 11.2554 12.336L11.2594 12.361C11.4294 13.321 11.6714 14.617 11.9564 15.96C12.2414 17.306 12.5664 18.683 12.9024 19.814C13.0714 20.38 13.2374 20.869 13.3974 21.253C13.5674 21.66 13.6954 21.867 13.7594 21.941C13.8414 22.034 14.1064 22.191 14.7504 22.234C15.3514 22.274 16.0854 22.202 16.8294 22.071C17.6552 21.9227 18.4708 21.7236 19.2714 21.473ZM17.0814 31.006C16.8274 31.02 16.7034 31.056 16.6714 31.07C16.2184 31.275 14.8424 31.755 13.6544 32.16C13.0444 32.369 12.4594 32.565 12.0274 32.71L11.9994 32.72V38.123C12.1754 38.115 12.3644 38.108 12.5574 38.101C13.3854 38.071 14.3704 38.041 14.7974 38.059C16.5894 38.13 17.9354 38.554 19.1814 38.947L19.2084 38.956C20.3764 39.324 21.4584 39.662 22.8754 39.769C23.2754 39.799 23.6644 39.838 24.0274 39.874H24.0324C25.4264 40.014 26.3444 40.084 27.0554 39.826C27.6084 39.625 29.6334 38.686 31.6754 37.659C32.6854 37.151 33.6754 36.634 34.4624 36.191C34.8574 35.969 35.1924 35.771 35.4494 35.605C35.5768 35.5223 35.6794 35.4523 35.7574 35.395L35.8474 35.325L35.8754 35.301C35.9754 35.2 36.0814 34.848 35.9094 34.517C35.8285 34.3622 35.6947 34.2415 35.5324 34.177C35.3324 34.09 34.9924 34.023 34.4524 34.112C33.2344 34.312 31.7794 34.898 30.3264 35.489L30.3064 35.498C29.5924 35.788 28.8764 36.079 28.2414 36.291C27.6314 36.494 26.9544 36.676 26.3644 36.641C25.5544 36.591 24.1334 36.381 22.9614 36.191C22.2879 36.0821 21.6152 35.9681 20.9434 35.849L20.8134 35.826L20.7674 35.817L20.9574 33.833L25.5274 33.888H25.5374C25.5908 33.8822 25.6437 33.8722 25.6954 33.858C25.8534 33.818 26.1244 33.719 26.4654 33.478C26.5704 33.403 26.7084 33.265 26.8374 33.08C26.8908 33.0026 26.9361 32.9273 26.9734 32.854C26.4163 32.8181 25.8627 32.7399 25.3174 32.62C25.0206 32.5553 24.7261 32.4803 24.4344 32.395L24.4004 32.385L18.8034 31.139L18.7504 31.13L18.5404 31.098C18.3117 31.0643 18.0819 31.0387 17.8514 31.021C17.5954 30.9995 17.3382 30.9945 17.0814 31.006ZM18.9994 30.16L19.1804 29.177L19.1984 29.18L24.9164 30.452L24.9584 30.465L24.9664 30.468L25.0044 30.479L25.1624 30.524C25.3014 30.562 25.5014 30.614 25.7394 30.666C26.2254 30.771 26.8334 30.868 27.3954 30.868C27.9584 30.868 28.5704 31.078 28.9004 31.676C29.1824 32.188 29.1124 32.742 29.0134 33.108C28.9213 33.4315 28.7843 33.7405 28.6064 34.026C28.9111 33.906 29.2331 33.7766 29.5724 33.638L29.6344 33.612C31.0124 33.052 32.6644 32.38 34.1274 32.139C35.8274 31.861 37.1024 32.471 37.6854 33.599C38.1994 34.594 38.0854 35.906 37.3004 36.704C37.1034 36.904 36.8104 37.107 36.5304 37.288C36.1738 37.5136 35.811 37.7293 35.4424 37.935C34.6174 38.399 33.5964 38.932 32.5724 39.447C30.5504 40.464 28.4204 41.459 27.7364 41.707C26.5504 42.137 25.1784 42 23.9594 41.878L23.8324 41.865C23.4635 41.8272 23.0942 41.7938 22.7244 41.765C21.0644 41.639 19.7924 41.238 18.6304 40.872L18.6054 40.864C17.3554 40.47 16.2294 40.119 14.7174 40.058C14.3854 40.045 13.4914 40.069 12.6294 40.101C12.144 40.1186 11.6587 40.1382 11.1734 40.16L11.0444 40.166L9.99844 40.214V31.278L10.8754 30.987C11.5871 30.7505 12.2977 30.5111 13.0074 30.269C14.2514 29.844 15.5054 29.403 15.8474 29.249C16.2144 29.083 16.6314 29.029 16.9654 29.009C17.3204 28.989 17.6854 29.004 18.0044 29.028C18.3884 29.0586 18.7707 29.1063 19.1504 29.171L19.1714 29.175H19.1774L19.1794 29.176H19.1814L18.9994 30.16Z" fill="white"/>
<path fill-rule="evenodd" clip-rule="evenodd" d="M35.1504 13.2399C35.2503 13.3253 35.3323 13.4295 35.3918 13.5465C35.4514 13.6636 35.4873 13.7912 35.4975 13.9221C35.5077 14.0531 35.492 14.1847 35.4513 14.3096C35.4107 14.4345 35.3458 14.5501 35.2604 14.6499C32.2794 18.1279 28.5684 23.2249 26.9304 27.3679C26.8821 27.49 26.8102 27.6015 26.7188 27.6958C26.6274 27.7901 26.5184 27.8656 26.3978 27.9177C26.2773 27.9699 26.1477 27.9979 26.0163 28C25.885 28.002 25.7546 27.9782 25.6324 27.9299C25.5103 27.8816 25.3989 27.8097 25.3046 27.7183C25.2102 27.6269 25.1348 27.5178 25.0826 27.3973C25.0304 27.2768 25.0025 27.1472 25.0004 27.0158C24.9983 26.8845 25.0221 26.754 25.0704 26.6319C26.8334 22.1729 30.7214 16.8719 33.7404 13.3489C33.9131 13.1476 34.1587 13.0232 34.4231 13.0029C34.6875 12.9827 34.9491 13.0683 35.1504 13.2409M15.3804 16.4479C15.2773 16.5293 15.1912 16.6302 15.1271 16.7449C15.063 16.8596 15.0221 16.9858 15.0068 17.1162C14.9915 17.2467 15.002 17.3789 15.0378 17.5053C15.0736 17.6317 15.134 17.7498 15.2154 17.8529C17.4574 20.6979 19.9054 24.3389 21.0674 27.3589C21.1672 27.6 21.3572 27.7925 21.5969 27.8954C21.8366 27.9983 22.1071 28.0035 22.3505 27.9098C22.594 27.8161 22.7912 27.631 22.9001 27.3939C23.009 27.1569 23.021 26.8867 22.9334 26.6409C21.6624 23.3369 19.0654 19.5059 16.7854 16.6149C16.6214 16.4066 16.3813 16.272 16.118 16.2407C15.8547 16.2094 15.5888 16.2839 15.3804 16.4479Z" fill="white"/>
<path d="M6 29H12V42H6V29Z" fill="white"/>
</svg>
