<svg width="48" height="48" viewBox="0 0 48 48" fill="none" xmlns="http://www.w3.org/2000/svg">
<path d="M6.384 18.5399V16.5399H13.616C14.2547 16.5399 14.8247 16.7259 15.326 17.0979C15.8273 17.4699 16.1807 17.9499 16.386 18.5379L6.384 18.5399ZM11.462 36.4599C13.2567 36.4599 14.782 35.8326 16.038 34.5779C17.294 33.3233 17.922 31.7973 17.922 29.9999C17.922 28.2026 17.294 26.6766 16.038 25.4219C14.782 24.1673 13.2567 23.5393 11.462 23.5379C9.66734 23.5366 8.14133 24.1646 6.884 25.4219C5.62667 26.6793 4.99867 28.2053 5 29.9999C5.00134 31.7946 5.62933 33.3206 6.884 34.5779C8.13867 35.8353 9.66467 36.4633 11.462 36.4619M39 36.4619C40.0893 36.4619 41.0287 36.0673 41.818 35.2779C42.606 34.4899 43 33.5513 43 32.4619C43 31.3726 42.606 30.4333 41.818 29.6439C41.03 28.8546 40.0907 28.4606 39 28.4619C37.9093 28.4633 36.97 28.8573 36.182 29.6439C35.394 30.4306 35 31.3699 35 32.4619C35 33.5539 35.394 34.4926 36.182 35.2779C36.97 36.0633 37.9093 36.4579 39 36.4619ZM11.452 32.2299C10.8293 32.2299 10.3033 32.0126 9.874 31.5779C9.44467 31.1433 9.23 30.6146 9.23 29.9919C9.23 29.3693 9.448 28.8426 9.884 28.4119C10.32 27.9839 10.8487 27.7699 11.47 27.7699C12.0927 27.7699 12.6187 27.9873 13.048 28.4219C13.4773 28.8579 13.692 29.3866 13.692 30.0079C13.692 30.6306 13.474 31.1573 13.038 31.5879C12.6033 32.0173 12.0747 32.2299 11.452 32.2299ZM39.924 26.5119C40.3293 26.6013 40.674 26.6979 40.958 26.8019C41.242 26.9059 41.564 27.0826 41.924 27.3319V13.5379H28.4L26.3 11.3379L29.1 8.53794L27.7 7.13794L20.6 14.2379L22.1 15.6379L24.9 12.8379L27 14.9379V17.9999C27 19.5226 26.458 20.8266 25.374 21.9119C24.29 22.9973 22.986 23.5393 21.462 23.5379H16.912C17.2933 23.8739 17.602 24.1879 17.838 24.4799C18.074 24.7733 18.3353 25.1266 18.622 25.5399H21.462C23.5593 25.5399 25.34 24.8073 26.804 23.3419C28.268 21.8766 29 20.0959 29 17.9999V15.5399H39.924V26.5119ZM33.164 30.9999C33.288 30.5866 33.414 30.2366 33.542 29.9499C33.67 29.6633 33.8687 29.3466 34.138 28.9999H19.84C19.896 29.3839 19.924 29.7173 19.924 29.9999C19.924 30.2826 19.896 30.6159 19.84 30.9999H33.164ZM39 38.4599C37.3227 38.4599 35.9033 37.8799 34.742 36.7199C33.5807 35.5573 33 34.1373 33 32.4599C33 30.7826 33.5807 29.3639 34.742 28.2039C35.9033 27.0439 37.3227 26.4633 39 26.4619C40.6773 26.4606 42.0967 27.0413 43.258 28.2039C44.4193 29.3666 45 30.7859 45 32.4619C45 34.1379 44.4193 35.5566 43.258 36.7179C42.0967 37.8806 40.6773 38.4619 39 38.4619M11.46 38.4619C9.12 38.4619 7.12533 37.6366 5.476 35.9859C3.82667 34.3353 3.00133 32.3399 3 29.9999C2.99867 27.6599 3.824 25.6646 5.476 24.0139C7.128 22.3633 9.12334 21.5379 11.462 21.5379C13.8007 21.5379 15.796 22.3633 17.448 24.0139C19.1 25.6646 19.9253 27.6599 19.924 29.9999C19.9227 32.3399 19.0973 34.3353 17.448 35.9859C15.7987 37.6366 13.8013 38.4619 11.46 38.4619Z" fill="white"/>
</svg>
